<svg width="48" height="48" viewBox="0 0 48 48" fill="none" xmlns="http://www.w3.org/2000/svg">
<g clip-path="url(#clip0_1_9)">
<path d="M15.5932 37.9196L13.229 42.9185C12.8687 43.6826 13.2717 44.5628 14.1319 44.8828C14.992 45.2029 15.9827 44.8448 16.343 44.0807L18.7072 39.0818C19.0674 38.3177 18.6644 37.4376 17.8043 37.1175C16.9441 36.7974 15.9534 37.1555 15.5932 37.9196ZM26.8513 35.9193L24.4871 40.9182C24.1268 41.6823 24.5298 42.5624 25.39 42.8825C26.2501 43.2026 27.2408 42.8445 27.601 42.0804L29.9652 37.0815C30.3255 36.3174 29.9225 35.4372 29.0623 35.1172C28.2022 34.7971 27.2115 35.1552 26.8513 35.9193Z" fill="#3C80B8"/>
<path d="M12 34C7.582 34 4 30.418 4 26C4 21.582 7.582 18 12 18C12.834 18 13.636 18.128 14.392 18.364C15.518 14.68 18.946 12 23 12C27.97 12 32 16.03 32 21C32 21.47 31.964 21.93 31.894 22.38C32.55 22.134 33.258 22 34 22C37.314 22 40 24.686 40 28C40 31.314 37.314 34 34 34H12Z" fill="url(#paint0_linear_1_9)"/>
<path d="M14 21C14 25.97 18.03 30 23 30C27.502 30 31.23 26.696 31.894 22.38C32.55 22.134 33.258 22 34 22C37.314 22 40 24.686 40 28C40 31.314 37.314 34 34 34H12C7.582 34 4 30.418 4 26C4 21.582 7.582 18 12 18C12.834 18 13.636 18.128 14.392 18.364C14.136 19.198 14 20.082 14 21Z" fill="url(#paint1_radial_1_9)"/>
<g clip-path="url(#clip1_1_9)">
<path d="M19.5847 34L18 41.4391H21.1659L19.5847 46.9375L27.0956 39.175H23.5378L26.7003 34H19.5847Z" fill="#EFCC00"/>
</g>
</g>
<defs>
<linearGradient id="paint0_linear_1_9" x1="22" y1="12" x2="22" y2="34" gradientUnits="userSpaceOnUse">
<stop stop-color="#9FC7FF"/>
<stop offset="1" stop-color="#38639D"/>
</linearGradient>
<radialGradient id="paint1_radial_1_9" cx="0" cy="0" r="1" gradientUnits="userSpaceOnUse" gradientTransform="translate(15.0679 -22.6966) rotate(-90) scale(20.9574 6.69705)">
<stop stop-color="#486DA8" stop-opacity="0.4"/>
<stop offset="1" stop-color="#486DA8" stop-opacity="0"/>
</radialGradient>
<clipPath id="clip0_1_9">
<rect width="48" height="48" fill="white"/>
</clipPath>
<clipPath id="clip1_1_9">
<rect width="22" height="18" fill="white" transform="translate(5 31)"/>
</clipPath>
</defs>
</svg>
